<?xml version="1.0" encoding="UTF-8"?>
<svg xmlns="http://www.w3.org/2000/svg" xmlns:xlink="http://www.w3.org/1999/xlink" width="20pt" height="20pt" viewBox="0 0 20 20" version="1.1">
<g id="surface1">
<path style=" stroke:none;fill-rule:nonzero;fill:rgb(0%,0%,0%);fill-opacity:1;" d="M 10 18.765625 C 10.964844 18.765625 11.753906 17.976562 11.753906 17.011719 L 8.246094 17.011719 C 8.246094 17.976562 9.035156 18.765625 10 18.765625 Z M 15.699219 13.507812 L 15.699219 8.683594 C 15.699219 5.96875 13.855469 3.777344 11.316406 3.164062 L 11.316406 2.550781 C 11.316406 1.847656 10.703125 1.234375 10 1.234375 C 9.296875 1.234375 8.683594 1.847656 8.683594 2.550781 L 8.683594 3.164062 C 6.144531 3.777344 4.300781 5.96875 4.300781 8.683594 L 4.300781 13.507812 L 2.550781 15.257812 L 2.550781 16.136719 L 17.449219 16.136719 L 17.449219 15.257812 Z M 15.699219 13.507812 "/>
</g>
</svg>
