<?xml version="1.0" encoding="UTF-8"?>
<svg xmlns="http://www.w3.org/2000/svg" xmlns:xlink="http://www.w3.org/1999/xlink" width="20pt" height="19pt" viewBox="0 0 20 19" version="1.1">
<g id="surface1">
<path style=" stroke:none;fill-rule:nonzero;fill:rgb(0%,0%,0%);fill-opacity:1;" d="M 17.023438 9.660156 Z M 17.023438 9.660156 L 10.003906 3.417969 L 2.980469 9.660156 L 2.980469 18.585938 C 2.980469 18.816406 3.164062 19 3.394531 19 L 7.78125 19 L 7.78125 15.085938 C 7.78125 14.855469 7.96875 14.671875 8.195312 14.671875 L 11.804688 14.671875 C 12.03125 14.671875 12.21875 14.855469 12.21875 15.085938 L 12.21875 19 L 16.609375 19 C 16.835938 19 17.023438 18.816406 17.023438 18.585938 Z M 2.980469 9.660156 Z M 2.980469 9.660156 "/>
<path style=" stroke:none;fill-rule:nonzero;fill:rgb(0%,0%,0%);fill-opacity:1;" d="M 9.960938 0 L 0 8.855469 L 1.050781 10.046875 L 10 2.085938 L 18.953125 10.046875 L 20 8.855469 L 10.039062 0 L 10 0.046875 Z M 9.960938 0 "/>
<path style=" stroke:none;fill-rule:nonzero;fill:rgb(0%,0%,0%);fill-opacity:1;" d="M 2.980469 1.273438 L 5.503906 1.273438 L 5.480469 2.777344 L 2.980469 5.046875 Z M 2.980469 1.273438 "/>
</g>
</svg>
