<?xml version="1.0" encoding="UTF-8"?>
<svg xmlns="http://www.w3.org/2000/svg" xmlns:xlink="http://www.w3.org/1999/xlink" width="20pt" height="33pt" viewBox="0 0 20 33" version="1.1">
<g id="surface1">
<path style=" stroke:none;fill-rule:nonzero;fill:rgb(0%,0%,0%);fill-opacity:1;" d="M 17.332031 12.539062 L 17.332031 17.160156 C 17.332031 20.378906 14.585938 23.101562 11.332031 23.101562 L 8.667969 23.101562 C 5.414062 23.101562 2.667969 20.378906 2.667969 17.160156 L 2.667969 12.539062 L 0 12.539062 L 0 17.160156 C 0 21.8125 3.96875 25.738281 8.667969 25.738281 L 8.667969 30.359375 L 3 30.359375 L 3 33 L 17 33 L 17 30.359375 L 11.332031 30.359375 L 11.332031 25.738281 C 16.03125 25.738281 20 21.8125 20 17.160156 L 20 12.539062 Z M 17.332031 12.539062 "/>
<path style=" stroke:none;fill-rule:nonzero;fill:rgb(0%,0%,0%);fill-opacity:1;" d="M 8.667969 21.121094 L 11.332031 21.121094 C 13.238281 21.121094 14.929688 19.640625 15.269531 17.820312 L 11.304688 17.820312 L 11.304688 16.5 L 15.332031 16.5 L 15.332031 15.179688 L 11.304688 15.179688 L 11.304688 13.859375 L 15.332031 13.859375 L 15.332031 12.539062 L 11.304688 12.539062 L 11.304688 11.21875 L 15.332031 11.21875 L 15.332031 9.898438 L 11.304688 9.898438 L 11.304688 8.578125 L 15.332031 8.578125 L 15.332031 7.261719 L 11.304688 7.261719 L 11.304688 5.941406 L 15.332031 5.941406 L 15.332031 4.621094 L 11.304688 4.621094 L 11.304688 3.300781 L 15.269531 3.300781 C 14.929688 1.480469 13.238281 0 11.332031 0 L 8.667969 0 C 6.535156 0 4.667969 1.851562 4.667969 3.960938 L 4.667969 17.160156 C 4.667969 19.269531 6.535156 21.121094 8.667969 21.121094 Z M 8.667969 21.121094 "/>
</g>
</svg>
